<svg width="201" height="168" viewBox="0 0 201 168" fill="none" xmlns="http://www.w3.org/2000/svg">
<g clip-path="url(#clip0)">
<path d="M109.085 167.447C109.061 167.341 108.978 167.3 108.884 167.276C106.848 166.637 104.896 165.803 102.979 164.88C98.2991 162.614 93.5186 160.573 88.7381 158.52C87.4779 157.975 86.2473 157.378 85.0285 156.75C83.4547 155.94 81.881 155.123 80.2954 154.337C77.0591 152.721 73.8997 150.958 70.7284 149.219C68.9239 148.231 67.0662 147.349 65.2143 146.462C63.8062 145.781 62.4513 145.024 61.1497 144.154C59.8185 143.255 58.44 142.421 57.1147 141.51C55.4758 140.386 53.8606 139.232 52.2513 138.066C47.4649 134.599 42.6785 131.126 37.9098 127.63C36.6733 126.719 35.5018 125.725 34.3067 124.754C32.0466 122.926 29.7747 121.104 27.5324 119.252C25.6687 117.72 23.8168 116.169 21.9946 114.59C21.1189 113.832 20.3261 112.981 19.4919 112.176C19.273 111.963 19.0482 111.75 18.8233 111.537C18.6459 111.365 18.5512 111.176 18.6044 110.904C18.6814 110.507 18.6577 110.105 18.5926 109.703C18.5571 109.496 18.5512 109.277 18.5512 109.07C18.5453 108.431 18.5571 107.792 18.5453 107.153C18.5334 106.153 18.6873 105.177 18.8588 104.201C18.9298 103.78 19.0127 103.366 19.0955 102.946C19.1251 102.786 19.1606 102.621 19.2079 102.467C19.344 101.994 19.5984 101.733 20.1486 101.692C21.2077 101.615 22.2608 101.449 23.3139 101.319C24.7221 101.148 26.1302 100.976 27.5383 100.81C28.3843 100.71 29.2245 100.603 30.0705 100.497C30.3427 100.461 30.5794 100.568 30.816 100.68C31.4136 100.97 32.0052 101.26 32.6028 101.55C33.5376 102.005 34.4783 102.455 35.4072 102.923C35.7208 103.082 35.8391 102.994 36.0047 102.763C36.1112 102.615 36.1822 102.426 36.2296 102.248C36.3597 101.745 36.4662 101.236 36.5786 100.728C36.7798 99.8046 36.981 98.8816 37.2531 97.9764C37.4247 97.4084 37.6436 96.87 37.9631 96.3612C38.7322 95.1424 39.4659 93.8999 40.2705 92.7048C41.2467 91.2553 42.2111 89.7939 43.3057 88.4272C44.2819 87.2144 45.3054 86.0311 46.2994 84.83C46.4236 84.6762 46.7017 84.5519 46.5834 84.3212C46.4946 84.1496 46.2402 84.2384 46.0568 84.2443C43.7849 84.2561 41.513 84.1792 39.247 84.3153C37.8093 84.404 36.3716 84.4987 34.9398 84.6703C33.1767 84.8714 31.4372 85.2087 29.686 85.4572C28.9405 85.5637 28.2069 85.753 27.4673 85.9127C26.3787 86.1376 25.3137 86.4511 24.2606 86.7884C23.9884 86.8771 23.7103 86.8889 23.4204 86.8594C22.0952 86.741 20.8231 86.392 19.5392 86.0902C19.1961 86.0074 18.8766 85.8417 18.5512 85.7057C18.279 85.5932 18.1489 85.3802 18.1489 85.0963C18.143 84.8123 18.137 84.5283 18.1666 84.2443C18.3264 82.6468 18.4979 81.0494 18.6695 79.4579C18.776 78.4402 19.0482 77.464 19.4091 76.5115C19.5747 76.0796 19.8824 75.7482 20.2315 75.4583C21.0184 74.8134 21.7934 74.1567 22.604 73.5473C23.2252 73.0799 23.8878 72.6599 24.5327 72.228C26.1716 71.1452 27.8696 70.1572 29.5913 69.2224C30.5024 68.7254 31.4491 68.2876 32.3898 67.8439C35.2297 66.5008 38.0755 65.1696 40.9213 63.8384C42.6134 63.0456 44.2996 62.2469 46.0036 61.4837C46.8851 61.0873 47.7903 60.7264 48.7015 60.4128C50.7545 59.6969 52.7838 58.9278 54.7836 58.064C56.6059 57.2771 58.4873 56.644 60.3569 55.9814C63.0075 55.0466 65.6521 54.0881 68.3086 53.1651C70.0717 52.5557 71.8407 51.9641 73.6393 51.4612C74.3434 51.2659 75.0238 50.9879 75.7279 50.7867C77.2957 50.343 78.8813 49.9702 80.4788 49.6448C80.5734 49.6271 80.6622 49.5916 80.7568 49.5857C81.0586 49.562 81.2124 49.4082 81.2775 49.1064C81.3485 48.7869 81.4727 48.4734 81.5851 48.1657C81.9875 47.0771 82.4075 46.0003 82.7921 44.9117C83.2773 43.5272 83.9399 42.2197 84.5493 40.8885C85.1705 39.5336 85.8687 38.2201 86.6378 36.9422C86.9218 36.4807 87.1407 35.9778 87.4069 35.5045C87.6318 35.114 87.8803 34.7413 88.1228 34.3626C88.3536 34.0076 88.6376 33.8834 89.0872 34.0017C90.1344 34.2798 91.1935 34.546 92.2644 34.7235C93.4417 34.9188 94.5422 35.3211 95.6486 35.7412C95.9148 35.8417 96.1633 35.9837 96.4118 36.1139C96.5893 36.2026 96.7076 36.3446 96.7372 36.5517C96.7786 36.8061 96.8437 37.0605 96.8674 37.3209C97.0685 39.3916 97.2638 41.4624 97.4649 43.5272C97.5833 44.7519 97.7253 45.9707 97.8554 47.1954C97.8909 47.5149 97.9323 47.5504 98.2636 47.5267C101.192 47.296 104.127 47.4439 107.056 47.4025C108.357 47.3847 109.659 47.3552 110.96 47.3611C112.877 47.367 114.794 47.3492 116.705 47.4262C117.883 47.4735 119.066 47.4972 120.243 47.6273C121.231 47.7397 122.225 47.7575 123.213 47.864C124.272 47.9764 125.326 48.1243 126.373 48.284C126.988 48.3787 127.154 48.574 127.254 49.207C127.313 49.5798 127.361 49.9584 127.414 50.3311C127.432 50.4672 127.532 50.5323 127.663 50.5382C127.805 50.5441 127.947 50.5323 128.089 50.5205C129.432 50.4021 130.775 50.2779 132.112 50.1536C132.721 50.0945 133.336 50.0235 133.946 49.9762C134.354 49.9466 134.685 50.1063 134.881 50.485C135.478 51.615 136.064 52.7451 136.472 53.9579C136.632 54.4372 136.667 54.9223 136.65 55.4193C136.579 57.1232 136.283 58.7976 136.017 60.4779C135.863 61.4541 135.525 62.4007 135.271 63.3592C135.011 64.3413 134.674 65.2998 134.425 66.2819C134.182 67.2404 133.851 68.1811 133.561 69.1277C133.502 69.3289 133.461 69.5419 133.419 69.749C133.372 70.0093 133.236 70.169 132.976 70.2341C132.337 70.4057 131.703 70.5891 131.064 70.7666C127.923 71.6481 124.787 72.5297 121.645 73.4053C119.829 73.9141 118.007 74.4111 116.185 74.9199C115.918 74.9969 115.628 75.0205 115.356 75.269C115.552 75.3223 115.694 75.3637 115.836 75.3992C115.995 75.4347 116.161 75.4702 116.321 75.4998C117.019 75.6181 117.705 75.7956 118.386 76.0027C119.332 76.2926 120.302 76.5174 121.261 76.754C123.509 77.3161 125.722 77.9847 127.899 78.7834C129.852 79.4993 131.786 80.2507 133.697 81.0849C134.218 81.3097 134.745 81.5109 135.265 81.7416C135.449 81.8245 135.567 81.783 135.709 81.6647C136.194 81.2446 136.632 80.7772 137.046 80.298C137.466 79.8129 137.928 79.375 138.413 78.955C139.324 78.1622 140.217 77.3575 141.117 76.547C142.099 75.6595 143.164 74.8667 144.187 74.0266C144.755 73.5592 145.329 73.1095 145.909 72.6539C146.524 72.1747 147.134 71.6836 147.767 71.2281C148.98 70.3584 150.098 69.3762 151.246 68.4237C151.376 68.3172 151.488 68.1988 151.624 68.0983C153.168 66.9682 154.618 65.7139 156.204 64.6312C156.985 64.0987 157.736 63.5189 158.511 62.9805C159.132 62.5486 159.771 62.1463 160.41 61.7381C161.369 61.1287 162.315 60.5075 163.286 59.9158C165.972 58.2769 168.746 56.8097 171.551 55.3838C172.095 55.1057 172.634 54.8099 173.19 54.5496C175.113 53.6384 177.041 52.7391 178.958 51.828C180.153 51.26 181.325 50.6506 182.526 50.0945C183.277 49.7454 184.052 49.4555 184.821 49.1597C186.431 48.5325 188.046 47.9409 189.643 47.2901C190.069 47.1185 190.389 47.1718 190.762 47.3847C192.536 48.3787 194.235 49.491 195.85 50.7335C197.163 51.7452 198.483 52.7391 199.82 53.7154C200.163 53.9638 200.311 54.2656 200.328 54.6679C200.34 54.9282 200.352 55.1886 200.358 55.4489C200.358 56.2003 200.358 56.9457 200.358 57.6971C200.358 57.8155 200.405 57.922 200.488 58.0166C200.488 58.1586 200.488 58.3006 200.488 58.4426C200.447 58.5491 200.37 58.6556 200.37 58.7621C200.352 59.1762 200.364 59.5963 200.364 60.0105C200.352 60.4838 200.269 60.9512 200.157 61.4127C200.068 61.7558 199.92 62.0102 199.506 62.0339C199.299 62.0457 199.098 62.1404 198.897 62.2055C197.767 62.5545 196.648 62.9214 195.512 63.2468C192.625 64.0751 189.779 65.0217 186.969 66.0748C186.46 66.2642 185.934 66.4239 185.449 66.6665C184.455 67.1635 183.478 67.6959 182.502 68.2225C181.774 68.613 181.059 69.0331 180.331 69.4236C178.065 70.6423 175.775 71.8316 173.521 73.0858C171.042 74.4644 168.593 75.8962 166.137 77.3161C165.646 77.6001 165.173 77.9137 164.717 78.2509C163.954 78.813 163.22 79.4105 162.463 79.9726C160.996 81.0553 159.57 82.1854 158.162 83.3391C156.754 84.4928 155.352 85.6583 153.955 86.8239C152.405 88.1196 151.009 89.5573 149.79 91.1665C149.601 91.4209 149.601 91.4328 149.861 91.6872C150.583 92.4031 151.305 93.119 152.021 93.8349C152.204 94.0183 152.381 94.2076 152.565 94.391C153.393 95.2016 154.233 96.0003 155.05 96.8227C155.813 97.5977 156.547 98.3965 157.31 99.1774C157.984 99.8697 158.688 100.544 159.357 101.242C160.239 102.165 161.114 103.094 161.96 104.053C162.54 104.703 163.078 105.396 163.629 106.076C163.865 106.372 164.09 106.685 164.137 107.076C164.256 107.987 164.404 108.904 164.469 109.821C164.54 110.833 164.617 111.845 164.717 112.856C164.759 113.282 164.812 113.702 164.871 114.122C164.918 114.489 164.853 114.821 164.682 115.152C164.356 115.785 164.055 116.424 163.741 117.063C163.7 117.146 163.658 117.234 163.611 117.317C163.416 117.643 163.209 117.726 162.836 117.613C162.676 117.566 162.528 117.495 162.374 117.436C161.937 117.258 161.499 117.087 161.061 116.903C158.836 115.98 156.576 115.14 154.411 114.069C149.624 111.703 144.779 109.448 140.046 106.969C139.543 106.703 139.04 106.449 138.531 106.188C138.348 106.094 138.176 106.064 138.016 106.23C137.892 106.354 137.732 106.39 137.567 106.401C136.975 106.449 136.389 106.502 135.798 106.555C134.999 106.632 134.194 106.685 133.396 106.792C132.763 106.875 132.206 106.786 131.627 106.484C128.065 104.632 124.479 102.81 120.906 100.976C120.782 100.911 120.657 100.84 120.533 100.769C120.415 100.698 120.397 100.58 120.439 100.461C120.456 100.396 120.486 100.325 120.521 100.266C120.912 99.6507 121.19 98.9585 121.687 98.4083C121.764 98.3255 121.805 98.213 121.858 98.1184C121.705 97.9113 121.486 97.8699 121.291 97.7871C119.456 97.0238 117.64 96.2251 115.853 95.3613C115.043 94.9708 114.232 94.5922 113.451 94.1425C112.268 93.4562 111.061 92.8054 109.777 92.3202C109.026 92.0363 108.292 91.7109 107.547 91.4091C106.606 91.0305 105.671 90.6281 104.689 90.3619C103.139 89.9418 101.583 89.5395 100.027 89.1372C99.5948 89.0248 99.1511 88.9183 98.6955 88.942C98.6009 88.9479 98.453 88.8769 98.4293 89.0662C99.1511 89.5158 99.8729 89.9714 100.595 90.4152C101.157 90.7642 101.731 91.0955 102.251 91.5038C102.547 91.7345 102.825 91.9949 103.133 92.2078C104.009 92.8054 104.902 93.3911 105.789 93.9769C111.392 97.6746 117.084 101.242 122.787 104.792C123.231 105.064 123.669 105.348 124.089 105.65C125.539 106.674 126.988 107.697 128.426 108.733C129.71 109.661 131.035 110.531 132.266 111.537C133.147 112.253 134.017 112.981 134.916 113.679C135.52 114.146 136.052 114.684 136.537 115.264C137.377 116.258 137.437 116.199 137.289 117.708C137.164 118.956 137.011 120.199 136.863 121.441C136.803 121.932 136.709 122.417 136.555 122.897C136.372 123.459 136.182 124.021 136.04 124.595C135.94 124.997 135.733 125.21 135.324 125.228C135.277 125.228 135.23 125.245 135.182 125.251C134.265 125.316 133.342 125.405 132.425 125.435C131.408 125.47 130.39 125.441 129.372 125.447C128.988 125.447 128.621 125.381 128.254 125.269C126.799 124.837 125.391 124.299 124.119 123.453C123.965 123.352 123.811 123.228 123.604 123.287C123.533 123.429 123.58 123.565 123.61 123.701C123.74 124.328 123.888 124.944 123.994 125.577C124.13 126.44 124.261 127.304 124.343 128.174C124.432 129.091 124.586 130.002 124.55 130.931C124.539 131.221 124.497 131.481 124.355 131.742C123.533 133.286 122.734 134.842 121.918 136.386C121.764 136.676 121.545 136.93 121.356 137.203C121.225 137.386 121.054 137.475 120.829 137.51C119.551 137.729 118.273 137.972 116.995 138.196C116.646 138.262 116.297 138.315 115.948 138.368C115.717 138.404 115.534 138.327 115.392 138.131C115.179 137.847 114.96 137.569 114.741 137.291C114.019 136.356 113.321 135.404 112.564 134.493C111.629 133.369 110.635 132.292 109.736 131.132C109.067 130.274 108.298 129.499 107.635 128.641C107.174 128.044 106.665 127.476 106.115 126.967C105.085 126.026 104.139 124.997 103.121 124.044C102.707 123.654 102.275 123.287 101.819 122.95C101.766 122.908 101.689 122.861 101.63 122.92C101.589 122.962 101.571 123.039 101.565 123.098C101.535 123.618 101.63 124.133 101.654 124.654C101.76 126.636 101.849 128.624 101.95 130.606C101.961 130.866 101.979 131.126 102.021 131.381C102.299 133.108 102.423 134.854 102.529 136.599C102.553 136.936 102.648 137.108 102.949 137.238C103.387 137.416 103.837 137.569 104.204 137.889C104.724 138.344 105.316 138.688 105.92 139.013C106.523 139.344 107.115 139.682 107.718 140.013C110.351 141.456 112.942 142.971 115.611 144.356C117.877 145.533 120.131 146.728 122.403 147.899C122.793 148.101 122.989 148.349 122.935 148.787C122.799 149.84 122.74 150.905 122.681 151.964C122.663 152.295 122.622 152.627 122.533 152.946C121.924 155.082 121.409 157.242 120.734 159.36C120.403 160.395 120.078 161.43 119.758 162.472C119.663 162.779 119.527 163.034 119.232 163.194C118.462 163.602 117.723 164.075 116.912 164.412C116.019 164.785 115.131 165.176 114.244 165.56C112.836 166.169 111.416 166.755 109.937 167.169C109.783 167.211 109.617 167.264 109.523 167.424C109.369 167.447 109.227 167.447 109.085 167.447ZM57.2863 102.603C57.0614 102.556 56.949 102.739 56.8011 102.84C54.8013 104.189 52.7779 105.496 51.0148 107.159C50.2397 107.886 49.4114 108.561 48.6127 109.259C48.24 109.584 48.24 109.59 48.6423 109.934C49.5594 110.72 50.4823 111.495 51.3935 112.282C51.6656 112.513 51.9496 112.72 52.2573 112.904C53.9612 113.927 55.6592 114.945 57.3572 115.974C57.7832 116.235 58.227 116.453 58.6825 116.649C61.4337 117.844 64.1908 119.027 66.9301 120.252C69.2375 121.287 71.5212 122.37 73.8168 123.429C73.9943 123.512 74.1659 123.677 74.3966 123.577C74.4558 123.405 74.4085 123.246 74.3907 123.08C74.2487 121.837 74.0239 120.601 73.9647 119.353C73.9174 118.436 73.7103 117.53 73.7222 116.601C73.7281 116.3 73.6393 115.998 73.592 115.696C73.5861 115.673 73.5802 115.643 73.5683 115.631C73.5506 115.619 73.521 115.631 73.4618 115.631C73.3317 115.927 73.0595 116.104 72.7874 116.288C72.1366 116.726 71.4266 117.045 70.7284 117.382C69.8824 117.797 69.0245 118.004 68.066 117.921C67.2791 117.85 66.5218 117.737 65.7941 117.447C64.8711 117.087 63.9482 116.714 63.0252 116.359C62.6702 116.223 62.3389 116.057 62.0135 115.85C59.428 114.193 56.8366 112.549 54.2452 110.898C53.908 110.685 53.7837 110.413 53.908 110.058C54.1446 109.389 54.3813 108.721 54.6771 108.076C55.4521 106.378 56.2154 104.674 57.1265 103.047C57.2034 102.911 57.3217 102.775 57.2803 102.591C57.2981 102.585 57.3217 102.585 57.3395 102.573C57.3454 102.568 57.3513 102.532 57.3454 102.532C57.2981 102.52 57.2803 102.544 57.2863 102.603Z" fill="#FFAA00"></path>
<path d="M110.451 4.62659C110.451 5.78622 110.446 6.94584 110.451 8.10547C110.451 8.44271 110.422 8.75628 110.262 9.06394C110.102 9.37751 109.99 9.72066 109.883 10.052C109.605 10.9158 109.156 11.6908 108.718 12.4777C108.351 13.1404 107.961 13.7912 107.606 14.4538C107.446 14.7615 107.227 14.9804 106.931 15.152C105.28 16.1223 103.659 17.1399 101.985 18.0747C100.601 18.8438 99.1747 19.5361 97.7488 20.2224C93.8558 22.1038 89.9391 23.9379 86.052 25.8312C82.2477 27.683 78.3606 29.3574 74.503 31.085C69.6929 33.2386 64.8296 35.2679 59.9663 37.3032C56.6945 38.6699 53.4582 40.1135 50.1923 41.4921C48.1038 42.3736 46.0094 43.2611 43.8558 43.9592C36.6495 46.3081 29.4255 48.6214 22.2074 50.9466C19.4859 51.8222 16.7702 52.7097 14.0487 53.5794C12.0016 54.2361 9.90121 54.7094 7.79495 55.1236C7.58788 55.165 7.37489 55.1887 7.16189 55.2005C6.26259 55.236 5.36329 55.2715 4.4699 55.3011C4.28058 55.307 4.09125 55.2952 3.90192 55.2833C3.48186 55.2537 3.12095 55.0822 2.84288 54.7686C2.2749 54.1296 1.7365 53.4788 1.18035 52.8339C0.837199 52.4375 0.707037 51.976 0.760285 51.4554C0.783951 51.2424 0.789867 51.0294 0.831282 50.8223C0.967361 50.1774 1.11527 49.5266 1.25727 48.8817C1.58267 47.4558 1.87258 46.0181 2.24532 44.5982C2.49972 43.6101 2.71272 42.628 2.8133 41.6104C2.84879 41.2376 2.95529 40.8708 3.02629 40.4981C3.08545 40.1727 3.27478 39.9419 3.54694 39.7704C4.83672 38.9361 6.12651 38.1019 7.42222 37.2736C7.64113 37.1316 7.87779 37.0251 8.11444 36.9127C11.0017 35.5519 13.8771 34.1734 16.7821 32.8481C18.6517 31.9961 20.5627 31.2329 22.4559 30.4342C25.9171 28.9728 29.3841 27.5233 32.8393 26.0501C36.4484 24.5118 40.087 23.0504 43.7138 21.5595C45.1101 20.9856 46.4945 20.3585 47.9145 19.8437C56.6472 16.6903 65.3917 13.5545 74.1362 10.4425C76.0058 9.77983 77.9168 9.24143 79.816 8.66162C83.9279 7.40141 88.034 6.13529 92.1577 4.89875C94.69 4.14144 97.24 3.43147 99.7841 2.70374C102.009 2.06477 104.233 1.42579 106.464 0.804559C107.399 0.544235 108.339 0.313493 109.274 0.0709182C109.386 0.0413359 109.505 0.00583717 109.617 -7.92868e-05C110.144 -0.047411 110.416 0.183331 110.451 0.721729C110.475 1.05305 110.457 1.38437 110.457 1.71569C110.457 2.69191 110.457 3.66221 110.451 4.62659Z" fill="#FFAA00"></path>
<path d="M108.925 167.483C108.635 167.317 108.28 167.146 107.842 166.951C108.239 163.336 108.032 159.514 108.428 155.851C105.115 153.686 100.707 153.017 97.0507 151.284C91.2407 148.894 85.6023 146.077 79.7569 144.001C79.4314 143.344 79.2717 143.208 78.5617 142.835C75.0296 140.77 71.8288 138.871 68.3026 136.836C61.8714 133.357 55.4343 130.363 49.7131 125.731C35.6437 115.483 27.1773 107.721 19.0895 103.562C19.0658 102.923 19.2137 102.337 19.5155 101.804C23.4736 103.585 26.9702 106.662 30.6029 109.17C38.9214 115.702 47.2282 122.317 56.02 128.31C63.4393 132.736 71.0597 136.463 78.5676 140.77C74.2368 128.056 73.5564 118.909 72.5388 109.247C71.4087 109.312 69.9237 117.69 69.4149 117.885C68.7877 118.01 68.1369 117.998 67.2435 117.862C68.0008 115.229 69.2611 112.484 69.9178 109.679C66.6933 108.058 63.5339 106.076 60.1793 104.526C58.5404 103.52 55.1621 103.834 57.9606 101.657C62.4394 97.6275 67.4979 94.8053 72.5329 91.6282C72.7458 88.9421 72.9529 86.2856 73.1659 83.5759C62.8003 89.0367 53.6416 97.0417 45.3645 105.467C44.5302 114.472 46.1809 114.927 40.9153 113.643C39.4243 113.14 37.75 113.182 36.6732 112.016C35.9691 109.851 36.0105 107.526 35.7443 105.272C35.7976 104.408 35.2592 103.153 36.052 102.662C38.7499 102.55 41.3294 103.869 43.9268 104.508C52.831 95.6632 62.4926 87.3742 73.5209 81.1205C73.8345 76.4465 74.645 71.7193 75.6035 67.0689C56.9075 73.6244 47.5417 85.7827 45.678 84.1852C52.7245 76.7719 63.0724 70.8141 70.7106 67.2228C76.8282 64.1344 76.1537 65.7259 76.84 61.5252C56.6294 64.6609 27.5263 78.3161 19.2196 86.0489C18.8646 85.8655 18.5097 85.6821 18.1665 85.5046C18.2493 82.4162 38.4067 72.7961 38.5665 72.7132C62.4867 61.75 67.143 62.2648 77.337 59.5787C78.4848 55.8868 80.1769 49.2959 81.3247 49.2131C81.9045 49.3787 81.4726 50.1479 81.3839 50.6212C78.7392 60.4543 76.1774 70.3821 75.1834 80.5703C74.1244 92.3026 73.3257 104.26 75.1006 115.963C76.4377 125.95 78.1476 135.404 80.8041 142.456C83.9457 141.232 86.6673 138.847 89.4598 136.901C88.2706 124.299 86.3833 111.685 85.555 98.9705C84.8746 82.1086 85.3479 65.1638 87.0045 48.3256C88.4245 33.1972 87.6021 33.3984 89.4835 34.0433C90.3296 33.777 89.0516 40.7111 89.1877 40.9123C84.7858 84.8716 87.5607 109.508 91.4892 136.392C93.7138 136.398 96.0034 136.777 98.2754 136.925C104.014 136.824 103.636 137.28 100.595 141.451C99.4527 142.681 98.7191 144.06 96.8909 144.249C93.2582 144.64 89.9746 144.332 86.3715 144.646C92.282 147.734 98.7013 150 104.925 152.544C107.079 153.213 108.759 154.84 110.085 153.988C114.06 151.745 117.906 149.882 122.077 148.184C123.089 147.805 122.888 149.065 122.829 149.763C118.729 151.603 114.64 153.497 110.588 155.615C110.132 159.36 110.185 163.276 110.144 167.099C109.925 167.365 109.588 167.341 109.185 167.489C109.114 167.483 109.02 167.483 108.925 167.483ZM59.6468 102.438C63.4038 104.242 66.8945 106.638 70.8822 108.111C72.1719 107.366 72.5624 107.135 72.3258 105.692C72.2311 101.733 72.0477 97.9765 72.45 94.0362C67.7169 96.0951 62.2796 99.7396 59.6468 102.438ZM90.6905 137.96C88.4659 139.906 85.697 141.309 83.354 143.155C87.9571 143.243 92.6725 142.882 97.3287 142.658C98.5949 141.386 100.109 139.439 100.388 138.723C97.2282 138.285 93.8913 138.747 90.6905 137.96ZM37.4068 104.378C37.395 106.508 37.5252 108.774 38.0044 110.874C39.7083 111.507 41.5779 111.892 43.418 112.324C43.5895 110.336 43.6842 108.176 43.5836 106.112C41.6785 105.26 39.5072 104.869 37.4068 104.378Z" fill="#502314"></path>
<path d="M0.5 51.3785C4.39303 49.6805 8.23281 47.6926 12.0371 45.6928C17.2022 43.5629 22.1838 41.362 27.3311 39.167C54.3989 27.1211 82.1175 16.4951 110.221 6.98145C110.593 7.35418 110.375 8.23573 110.351 8.84513C104.352 10.4189 98.5357 12.6672 92.6784 14.8385C86.2413 17.0276 80.1296 19.2581 73.8286 21.7963C49.1984 31.1798 24.9054 41.1135 1.41705 52.9997C0.931901 52.6802 0.860904 52.1595 0.5 51.6625C0.5 51.5679 0.5 51.4732 0.5 51.3785Z" fill="#502314"></path>
<path d="M99.5238 76.9494C99.7191 78.6593 99.441 80.5407 99.8907 82.2683C110.25 81.5879 123.835 86.3566 128.514 89.3385C128.165 89.8769 127.822 90.3679 127.313 90.788C118.847 86.5045 109.517 83.7652 99.9735 83.9959C99.8374 86.9127 100.257 89.9715 100.287 92.9416C103.618 96.3968 106.701 100.248 110.375 103.443C114.274 106.354 118.421 108.395 122.61 110.756C125.308 112.555 127.55 114.809 129.934 117.022C136.366 116.205 138.01 115.087 137.194 117.874C135.052 118.418 132.662 118.152 130.65 118.98C130.307 121.092 130.165 123.323 129.775 125.512C129.248 125.535 128.798 125.453 128.331 125.245C128.355 122.968 128.787 120.713 128.952 118.495C126.047 115.418 123.018 112.436 118.977 110.797C107.742 104.97 105.689 100.627 100.476 95.4857C100.796 100.071 100.754 104.993 101.328 105.585C109.079 111.685 125.775 123.098 124.397 123.63C123.71 124.825 122.994 123.79 122.19 123.263C119.9 121.589 117.883 119.956 115.64 118.223C110.996 114.655 106.215 111.152 101.346 107.821C100.861 109.247 102.281 109.981 103.091 110.969C104.464 112.525 105.707 114.057 107.055 115.637C110.931 120.252 114.705 124.701 118.155 129.689C120.131 130.251 122.379 130.269 124.45 130.748C124.669 131.257 124.42 131.665 124.178 132.103C122.125 132.091 120.03 131.28 117.9 131.31C116.77 134.895 116.593 141.22 114.788 137.067C115.06 135.729 115.226 134.215 115.534 132.765C115.688 131.73 116.256 130.742 115.912 129.718C111.706 123.553 106.984 117.418 101.701 112.058C101.748 116.205 102.926 121.92 102.157 123.104C101.701 122.891 101.175 122.678 101.186 122.275C100.441 117.814 100.417 113.631 99.9676 109.265C98.4293 94.4207 97.743 79.5526 97.9619 64.5899C97.7548 58.7977 97.2342 53.2481 97.8909 47.5032C98.1986 47.4263 98.4589 47.5564 98.7488 47.5683C99.157 50.8992 98.8257 54.384 99.086 57.7919C107.103 54.597 115.516 52.1713 124.124 50.8223C127.231 50.4022 134.218 48.2664 134.892 50.6034C134.644 50.8815 134.638 50.9288 134.147 50.9702C132.372 51.1596 130.804 51.337 128.994 51.5737C118.32 53.1771 107.665 56.1767 99.1866 59.7739C99.3641 62.5842 99.3937 65.3709 99.3404 68.264C105.659 65.0987 112.493 62.9096 119.273 60.7205C125.024 59.1349 130.656 57.0938 136.49 55.9696C136.525 56.5376 136.46 57.0878 136.425 57.6499C127.426 59.8331 118.403 62.2884 109.712 65.6785C97.0567 70.2934 99.4824 70.0567 99.4469 74.7721C101.488 74.713 103.671 73.9793 105.813 73.9793C107.268 73.861 117.054 74.0208 115.126 75.3579C109.765 75.2632 100.24 75.9791 99.5238 76.9494Z" fill="#502314"></path>
<path d="M134.023 106.857C133.401 106.905 132.839 106.916 132.26 106.875C141.542 82.795 167.871 66.9033 188.839 57.7092C191.897 56.1472 195.134 54.7332 198.411 53.4907C199.121 53.0647 199.932 53.4493 200.263 54.2421C200.275 54.7746 199.82 54.8219 199.287 55.029C196.607 55.9638 194.211 56.94 191.702 58.2239C168.001 68.483 143.702 83.8954 134.023 106.857Z" fill="#502314"></path>
<path d="M143.696 97.7576C149.098 101.39 154.014 105.751 159.57 109.265C160.943 108.336 161.972 106.839 163.351 105.757C164.22 106.703 164.368 107.224 163.327 108.07C162.516 108.934 162.025 109.673 161.132 110.513C162.061 113.046 164.232 116.619 163.41 117.595C163.002 117.649 163.002 117.649 162.428 117.442C160.747 114.33 160.333 111.649 159.233 110.892C155.44 108.508 151.95 105.887 148.376 103.171C142.791 99.0947 141.844 100.012 143.696 97.7576Z" fill="#502314"></path>
</g>
<defs>
<clipPath id="clip0">
<rect width="200" height="167.483" fill="white" transform="translate(0.5)"></rect>
</clipPath>
</defs>
</svg>
